<svg class="svg-icon" style="width: 1em; height: 1em;vertical-align: middle;fill: currentColor;overflow: hidden;" viewBox="0 0 1024 1024" version="1.1" xmlns="http://www.w3.org/2000/svg"><path d="M512.016 81.856c-237.562 0-430.14 192.586-430.14 430.144 0 237.554 192.578 430.132 430.14 430.132 237.546 0 430.126-192.578 430.126-430.132-0.002-237.558-192.58-430.144-430.126-430.144z" fill="#EDF3FC" /><path d="M512.016 2C230.796 2 2 230.782 2 512c0 281.21 228.796 510 510.016 510C793.222 1022 1022 793.21 1022 512 1022 230.782 793.222 2 512.016 2z m0 1003.652C239.804 1005.652 18.348 784.192 18.348 512c0-272.208 221.458-493.664 493.668-493.664 272.196 0 493.64 221.458 493.64 493.664 0 272.192-221.446 493.652-493.64 493.652z" fill="#EDF3FC" /><path d="M654.002 547.23c-26.622 0-48.28 21.656-48.28 48.274v49.434h63.434a399.38 399.38 0 0 0 9.054-14.344c8.722-14.54 16.282-29.984 22.852-45.856-4.908-21.448-24.136-37.508-47.06-37.508z" fill="#330D84" /><path d="M724.786 356.422l-199.934-93.46a30.1 30.1 0 0 0-12.852-2.876c-4.458 0-8.774 0.964-12.844 2.872l-199.946 93.464c-11.606 5.422-18.824 18.094-17.972 31.532 3.61 56.446 16.79 163.04 64.546 242.64 59.414 99.028 131.39 125.652 159.578 132.492 4.34 1.054 8.93 1.066 13.29 0 7.664-1.862 18.586-5.206 31.6-11.054V662.4c0-9.642 7.822-17.46 17.47-17.46h9.848v-49.434c0-42.14 34.288-76.426 76.432-76.426 24.434 0 46.208 11.536 60.21 29.432 19.19-60.534 26.092-122.15 28.548-160.56 0.854-13.432-6.37-26.104-17.974-31.53z" fill="#330D84" /><path d="M669.156 644.938h33.13v-49.434c0-3.702-0.432-7.3-1.224-10.766-6.57 15.872-14.13 31.316-22.852 45.856a399.38 399.38 0 0 1-9.054 14.344z" fill="#6857E5" /><path d="M736.914 330.46l-199.926-93.458a59.096 59.096 0 0 0-49.968-0.004l-199.942 93.46c-22.196 10.372-36.032 34.21-34.438 59.316 3.778 59.042 17.7 170.762 68.578 255.566 64.972 108.3 145.696 137.89 177.398 145.602 4.382 1.046 8.89 1.594 13.382 1.594 4.5 0 9-0.546 13.394-1.606 6.738-1.636 15.698-4.27 26.244-8.43a17.412 17.412 0 0 1-1.386-6.828v-23.644c-13.014 5.848-23.936 9.194-31.6 11.054-4.36 1.066-8.95 1.054-13.29 0-28.188-6.84-100.164-33.466-159.578-132.492-47.758-79.602-60.938-186.196-64.546-242.64-0.852-13.438 6.368-26.11 17.972-31.532l199.946-93.464a30.054 30.054 0 0 1 12.844-2.872c4.45 0 8.77 0.964 12.852 2.876l199.934 93.46c11.606 5.426 18.828 18.098 17.976 31.528-2.458 38.41-9.36 100.028-28.548 160.56a76.01 76.01 0 0 1 15.94 40.626c28.878-73.16 38.218-152.7 41.206-199.364 1.592-25.092-12.244-48.928-34.444-59.308z" fill="#6857E5" /><path d="M464.654 182.786c-25.404-6.356-45.2-26.172-51.604-51.544l-1.07-4.334-1.078 4.334a70.942 70.942 0 0 1-51.602 51.544l-4.304 1.098 4.304 1.102a70.924 70.924 0 0 1 51.602 51.55l1.078 4.334 1.07-4.334c6.404-25.38 26.2-45.208 51.604-51.55l4.304-1.102-4.304-1.098zM287.628 295.156a47.326 47.326 0 0 1-34.396-34.358l-0.712-2.888-0.718 2.888a47.29 47.29 0 0 1-34.396 34.358l-2.87 0.732 2.87 0.734a47.274 47.274 0 0 1 34.396 34.362l0.718 2.888 0.712-2.888a47.312 47.312 0 0 1 34.396-34.362l2.868-0.734-2.868-0.732z" fill="#330D84" /><path d="M837.208 599.496a44.514 44.514 0 0 1-32.364-32.37l-0.692-2.71-0.688 2.71a44.498 44.498 0 0 1-32.386 32.37l-2.71 0.684 2.71 0.688a44.49 44.49 0 0 1 32.386 32.368l0.688 2.726 0.692-2.726a44.502 44.502 0 0 1 32.364-32.368l2.734-0.688-2.734-0.684z" fill="#FFBE1B" /><path d="M463.482 827.684a62.806 62.806 0 0 1-45.652-45.652l-0.952-3.824-0.964 3.824a62.764 62.764 0 0 1-45.656 45.652l-3.824 0.976 3.824 0.956a62.748 62.748 0 0 1 45.656 45.64l0.964 3.84 0.952-3.84a62.79 62.79 0 0 1 45.652-45.64l3.84-0.956-3.84-0.976zM547.814 846.422a39.96 39.96 0 0 1-29.02-29.02l-0.602-2.438-0.618 2.438a39.91 39.91 0 0 1-29.012 29.02l-2.43 0.61 2.43 0.61a39.884 39.884 0 0 1 29.012 29.004l0.618 2.454 0.602-2.454a39.932 39.932 0 0 1 29.02-29.004l2.438-0.61-2.438-0.61z" fill="#5D8EF9" /><path d="M654.002 519.078c-42.144 0-76.432 34.286-76.432 76.426v49.434h28.152v-49.434c0-26.618 21.658-48.274 48.28-48.274 26.626 0 48.286 21.656 48.286 48.274v49.434h28.15v-49.434c0-42.14-34.29-76.426-76.436-76.426z" fill="#FFBE1B" /><path d="M740.29 644.938h-172.566c-9.648 0-17.47 7.818-17.47 17.46v113.278a17.468 17.468 0 0 0 17.47 17.468h172.566a17.466 17.466 0 0 0 17.466-17.468v-113.278c0-9.642-7.82-17.46-17.466-17.46z" fill="#8AC9F9" /><path d="M618.622 385.524c-12.412-10.422-30.934-8.84-41.368 3.578l-92.718 110.25-37.88-36.64c-11.64-11.27-30.234-10.964-41.522 0.688-11.27 11.66-10.964 30.242 0.688 41.52l60.516 58.528a29.364 29.364 0 0 0 21.928 8.216 29.346 29.346 0 0 0 20.952-10.422l112.972-134.348c10.44-12.41 8.846-30.934-3.568-41.37z" fill="#FFFFFF" /></svg>